# xmcd
#
# Track frame offsets:
#	150
#	35015
#	55587
#	74547
#	103500
#	142717
#	169845
#	191572
#	222617
#	247537
#	281462
#
# Disc length: 4348 seconds
#
# Revision: 0
# Processed by: cddbd v1.4PL0 Copyright (c) Steve Scherf et al.
# Submitted via: EasyCDDAExtractor 4.6.0.1
#
DISCID=9910fa0b
DTITLE=Home Grown Blues - Party in your Head
DYEAR=1999
DGENRE=Blues
TTITLE0=Beautiful You
TTITLE1=Classic Design
TTITLE2=Before the Fire is Gone
TTITLE3=Got You on my Mind
TTITLE4=Midnight Man
TTITLE5=That's Alright
TTITLE6=I Hear You Knocking
TTITLE7=One Dime from Being Spent
TTITLE8=Nothin' but the Blues
TTITLE9=Hard Road
TTITLE10=Party in your Head
EXTD=
EXTT0=
EXTT1=
EXTT2=
EXTT3=
EXTT4=
EXTT5=
EXTT6=
EXTT7=
EXTT8=
EXTT9=
EXTT10=
PLAYORDER=
